<svg width="140" height="140" viewBox="0 0 140 140" fill="none" xmlns="http://www.w3.org/2000/svg">
<path d="M92.5666 128.74C91.8599 128.74 91.1532 128.711 90.4472 128.652C87.6257 128.417 84.8889 127.72 82.3113 126.58C77.1995 124.319 73.0352 120.428 70.5834 115.625C68.4065 111.624 67.619 107.47 68.2434 103.278C68.7941 99.5788 70.4498 95.8205 73.1641 92.1086C75.5065 88.906 78.6386 85.7277 82.4744 82.6639C85.7478 80.0491 89.45 77.5755 93.4792 75.3115C95.1637 74.2968 96.9748 73.4061 98.7269 72.5444C102.781 70.5503 106.61 68.6677 109.103 65.3465L109.123 65.3222C111.033 62.9781 112.508 60.6183 113.508 58.308C114.678 55.606 115.152 53.054 114.917 50.7224C114.877 50.2932 114.703 49.8984 114.421 49.5876C114.265 49.5908 114.069 49.6049 113.878 49.619C113.58 49.641 113.243 49.6661 112.907 49.6614C112.829 49.663 112.751 49.6638 112.674 49.6638C109.123 49.6638 105.787 47.9381 103.712 45.014L103.703 45.0015C102.273 42.8999 101.59 40.7323 100.929 38.6362C100.64 37.7228 100.343 36.7787 99.9904 35.8731L99.978 35.8393C99.3559 33.9991 98.3642 32.4507 97.1115 31.3615C95.6716 30.1098 93.9413 29.5023 91.9663 29.5565H91.9516C91.0654 29.5636 90.1412 29.6397 89.1619 29.7197C86.3761 29.9481 83.2184 30.2071 80.3526 28.7733C76.8586 27.1167 74.5318 23.6331 73.9664 19.2141C73.7039 17.7489 73.7047 16.2892 73.7062 14.8767C73.7062 14.3925 73.7062 13.9193 73.6969 13.4539C73.0065 14.3234 72.3821 15.2855 71.7693 16.2296C71.6699 16.3826 71.5713 16.5349 71.4726 16.6863C68.3157 21.8909 65.2627 27.3654 62.3092 32.6602L62.2222 32.8164C61.9263 33.3328 61.6281 33.8609 61.34 34.3718C60.1083 36.5527 58.8354 38.8073 57.2953 40.985C54.9965 44.3509 51.6018 46.9799 47.2054 48.8013C43.4224 50.3685 39.015 51.3016 34.1044 51.5739C33.5864 51.6029 33.1476 51.2168 33.1033 50.6957C33.0583 50.1739 33.4264 49.7171 33.9413 49.6559C46.3868 48.1649 51.869 43.169 54.2766 39.2366C56.6313 35.137 58.767 30.8317 60.8336 26.6686C62.8226 22.66 64.8799 18.5148 67.1484 14.5125L67.1585 14.4945C67.3006 14.2575 67.442 14.0205 67.5825 13.7843C68.735 11.8443 69.9272 9.83769 71.9285 8.15358L71.9355 8.14809C72.5988 7.60268 73.3932 7.22285 74.2312 7.05099L74.2701 7.04392C75.4715 6.86029 76.5339 7.12475 77.3408 7.80985C78.7652 9.01918 78.9725 11.0831 78.9951 11.9362C79.044 12.6409 79.0735 13.3574 79.1022 14.0503C79.1659 15.6018 79.2265 17.067 79.4851 18.4638L79.4913 18.5015C79.9169 21.6194 82.0138 25.0519 86.5221 24.4649L86.5726 24.4602C87.1349 24.4241 87.7306 24.3637 88.3612 24.2986C89.4244 24.1895 90.629 24.0663 91.9042 24.0474C95.1249 23.8905 98.2151 24.8652 100.845 26.8671C103.206 28.665 105.025 31.1747 105.97 33.9363C106.38 34.8372 106.708 35.8495 107.056 36.9207C107.654 38.7618 108.272 40.6656 109.318 41.9927C110.438 43.4139 111.897 43.9491 113.909 43.6768C113.929 43.6744 113.948 43.6721 113.967 43.6705C114.756 43.6148 115.544 43.6768 116.312 43.8557L116.332 43.8604C117.908 44.2716 119.273 45.2518 120.176 46.6204L120.194 46.6495C122.852 51.0881 121.382 55.9803 119.796 60.2173L119.785 60.2455C116.827 67.3116 111.877 72.8552 105.845 75.8545L105.835 75.86C94.8204 81.125 82.7089 87.907 76.3864 98.2855L76.3763 98.3012C73.3909 102.95 73.3964 108.93 76.391 114.298C79.8618 120.519 86.3808 124.246 93.4116 124.028C98.5809 123.674 102.976 122.265 106.474 119.838C109.635 117.644 111.956 114.638 113.188 111.145C114.475 107.495 114.552 103.445 113.412 99.4336C112.223 95.2492 109.747 91.2924 106.25 87.9909L107.271 86.8099C112.756 91.3348 116.036 95.8739 117.301 100.687C118.641 105.782 117.75 111.2 114.576 117.249L114.557 117.283C111.6 122.299 106.026 126.155 99.2643 127.863C97.0548 128.449 94.8111 128.743 92.5698 128.743L92.5666 128.74ZM105.976 33.9582C105.976 33.9582 105.977 33.9622 105.978 33.9645C105.978 33.9622 105.977 33.9606 105.976 33.9582ZM105.953 33.901C105.953 33.901 105.954 33.9041 105.955 33.9057C105.955 33.9041 105.953 33.9025 105.953 33.901Z" fill="#212121" stroke="#212121" stroke-width="2.21386"/>
<path d="M60.6353 133.012C60.1759 128.808 59.3575 123.39 57.0831 118.766C55.9232 116.408 54.4694 114.465 52.7625 112.99C50.8296 111.321 48.4992 110.189 45.8349 109.626C44.1854 109.299 42.5033 109.203 40.7238 109.103C38.5242 108.979 36.249 108.851 33.9844 108.25C29.7673 107.135 25.9771 104.614 23.3127 101.153L23.3074 101.146C19.0321 95.459 17.4733 89.6473 18.8009 84.3385C19.5444 81.4694 22.3523 78.6631 26.098 79.104L26.1373 79.1093C27.1483 79.2819 28.2046 79.1199 29.1174 78.6533L29.425 78.4336C30.3861 77.6777 31.101 76.665 31.4939 75.5054L31.5165 75.4471C31.8898 74.5852 32.2072 73.6399 32.5427 72.6378C33.3044 70.3648 34.168 67.7896 36.0012 65.3332C38.6066 61.6181 44.0886 59.4102 49.0493 60.0782C49.6704 60.1297 50.2591 60.1911 50.8281 60.2502C52.1965 60.3918 53.3783 60.5145 54.3636 60.4403C55.5416 60.3562 56.6456 59.8487 57.476 59.011C59.3523 57.0652 59.6658 54.212 59.8593 50.9558L59.8608 50.9361C59.8948 50.54 59.9099 50.1401 59.9258 49.7159C59.9757 48.3791 60.027 46.996 60.6874 45.6183L60.7109 45.5728C61.332 44.4745 62.2826 43.836 63.4591 43.727C64.9681 43.5868 66.6788 44.3708 67.8168 45.7235C71.0425 49.4872 73.1061 53.8022 75.1017 57.9756C75.4063 58.6126 75.7214 59.2716 76.0334 59.9139C78.7167 65.4529 82.9021 70.0815 88.137 73.3013L87.4366 74.6397C83.9562 73.0976 80.7523 70.8806 77.9157 68.0501C75.3549 65.4946 73.1477 62.502 71.3546 59.1542C70.8219 58.318 70.2945 57.4386 69.7837 56.588C68.4137 54.3051 67.009 51.964 65.256 50.0015C65.2514 50.4415 65.2544 50.8869 65.2575 51.3406C65.2696 53.0478 65.2816 54.8126 64.86 56.6289C64.3749 59.2966 62.5304 63.0132 58.9148 64.7546C56.2595 66.2103 53.3345 66.0036 50.5054 65.8036C48.2544 65.6445 46.1281 65.4938 44.3244 66.1975C40.853 67.7668 39.8481 70.9132 38.7834 74.2443C38.1116 76.3454 37.418 78.5177 36.0737 80.3666C35.1466 81.6868 33.9149 82.8024 32.5109 83.5947L32.4769 83.6129C31.5543 84.0726 30.5781 84.4286 29.5761 84.6695C28.3527 84.9846 27.0833 84.9225 26.0632 84.8725C25.8569 84.8626 25.6574 84.8528 25.4783 84.8475C25.2169 85.102 25.0303 85.4269 24.9441 85.7844L24.9419 85.7928C24.4681 87.6689 24.555 89.8503 25.192 92.1013C25.7791 94.1767 26.809 96.2641 28.1691 98.138C30.0166 100.721 32.5835 102.601 35.5939 103.581C37.356 104.12 39.2489 104.309 41.252 104.509C43.1547 104.7 45.1216 104.896 47.0325 105.417C53.0896 107.005 57.4163 110.817 59.8933 116.746C62.2236 122.323 62.402 128.651 62.1413 132.977L61.3834 132.931L60.6353 133.013V133.012Z" fill="#212121" stroke="#212121" stroke-width="2.21386"/>
<path d="M95.1603 46.0314C93.9331 46.1147 92.8684 45.1929 92.7717 43.9636V42.014C92.9735 40.6916 94.2059 39.7834 95.5252 39.9856C96.5695 40.1454 97.3894 40.9673 97.5488 42.014V43.9636C97.4521 45.1922 96.3874 46.1147 95.1603 46.0314Z" fill="#212121" stroke="#212121" stroke-width="2.21386"/>
<path d="M47.9857 77.3236C46.7586 77.4077 45.6924 76.4851 45.5957 75.2558V73.3062C45.6917 72.0769 46.7579 71.1544 47.9857 71.2385C49.2121 71.1552 50.2768 72.0777 50.3728 73.3062V75.2558C50.2768 76.4844 49.2121 77.4062 47.9857 77.3236Z" fill="#212121" stroke="#212121" stroke-width="2.21386"/>
</svg>
