<svg width="330" height="140" viewBox="0 0 330 140" fill="none" xmlns="http://www.w3.org/2000/svg">
<path d="M74.2496 108.974C73.7807 108.974 73.3118 108.955 72.8434 108.916C70.9713 108.76 69.1554 108.298 67.4451 107.541C64.0534 106.041 61.2903 103.46 59.6635 100.272C58.2192 97.6179 57.6966 94.8613 58.111 92.0803C58.4763 89.6257 59.5749 87.1321 61.3759 84.6692C62.93 82.5442 65.0082 80.4354 67.5533 78.4026C69.7253 76.6676 72.1817 75.0264 74.8551 73.5241C75.9728 72.8509 77.1744 72.2599 78.337 71.6882C81.0268 70.3651 83.5672 69.1159 85.2219 66.9123L85.2348 66.8962C86.5019 65.3409 87.481 63.7751 88.1447 62.2422C88.9207 60.4494 89.235 58.7561 89.0794 57.2091C89.0526 56.9243 88.9372 56.6624 88.7501 56.4562C88.6466 56.4583 88.5167 56.4676 88.3899 56.477C88.1921 56.4916 87.9684 56.5083 87.7453 56.5051C87.6938 56.5062 87.6422 56.5067 87.5907 56.5067C85.2348 56.5067 83.0216 55.3617 81.6447 53.4216L81.639 53.4132C80.6898 52.0188 80.2364 50.5806 79.7978 49.1898C79.6067 48.5837 79.4093 47.9573 79.1754 47.3565L79.1671 47.3341C78.7544 46.113 78.0963 45.0857 77.2651 44.363C76.3098 43.5325 75.1617 43.1294 73.8513 43.1654H73.8415C73.2535 43.17 72.6403 43.2206 71.9905 43.2737C70.1422 43.4252 68.047 43.597 66.1455 42.6457C63.8272 41.5465 62.2833 39.2351 61.9082 36.3031C61.734 35.3309 61.7345 34.3624 61.7356 33.4252C61.7356 33.1039 61.7356 32.7899 61.7294 32.4812C61.2713 33.0581 60.857 33.6965 60.4504 34.3229C60.3844 34.4244 60.319 34.5254 60.2536 34.6259C58.1589 38.0792 56.1332 41.7116 54.1735 45.2247L54.1158 45.3283C53.9195 45.671 53.7216 46.0214 53.5305 46.3604C52.7132 47.8074 51.8686 49.3034 50.8468 50.7483C49.3215 52.9816 47.0691 54.7259 44.152 55.9344C41.642 56.9743 38.7177 57.5934 35.4594 57.7741C35.1157 57.7933 34.8246 57.5372 34.7952 57.1914C34.7653 56.8451 35.0096 56.5421 35.3512 56.5015C43.6089 55.5122 47.2464 52.1974 48.8438 49.5882C50.4062 46.868 51.8233 44.0115 53.1945 41.2492C54.5142 38.5895 55.8792 35.8391 57.3844 33.1836L57.3911 33.1716C57.4854 33.0144 57.5792 32.8571 57.6724 32.7004C58.4371 31.4132 59.2281 30.0818 60.556 28.9644L60.5607 28.9607C61.0007 28.5988 61.5279 28.3468 62.0839 28.2328L62.1097 28.2281C62.9068 28.1063 63.6118 28.2817 64.1472 28.7363C65.0922 29.5387 65.2298 30.9081 65.2448 31.4741C65.2772 31.9417 65.2968 32.4171 65.3159 32.8769C65.3581 33.9063 65.3983 34.8785 65.5699 35.8053L65.574 35.8303C65.8564 37.899 67.2477 40.1766 70.239 39.7871L70.2725 39.7839C70.6456 39.76 71.0408 39.7199 71.4593 39.6767C72.1647 39.6043 72.9639 39.5226 73.8101 39.5101C75.947 39.4059 77.9974 40.0526 79.7422 41.3809C81.3092 42.5739 82.516 44.239 83.1432 46.0714C83.4147 46.6691 83.6327 47.3408 83.8635 48.0516C84.2603 49.2732 84.6705 50.5364 85.3641 51.4169C86.1072 52.3598 87.0754 52.715 88.4105 52.5343C88.4234 52.5327 88.4363 52.5312 88.4492 52.5301C88.9722 52.4931 89.4953 52.5343 90.0049 52.653L90.0183 52.6561C91.0638 52.929 91.9697 53.5793 92.5685 54.4874L92.5809 54.5067C94.3442 57.4518 93.3688 60.6978 92.3165 63.509L92.3093 63.5278C90.3465 68.2161 87.062 71.8944 83.0602 73.8845L83.053 73.8881C75.745 77.3815 67.7089 81.8814 63.5139 88.7676L63.5072 88.778C61.5264 91.8626 61.53 95.8303 63.517 99.3919C65.8198 103.519 70.1453 105.992 74.8103 105.848C78.2401 105.613 81.1562 104.678 83.4771 103.068C85.5743 101.612 87.1146 99.6179 87.9318 97.3003C88.7857 94.878 88.8372 92.1907 88.0808 89.5294C87.2918 86.753 85.6491 84.1276 83.3287 81.9371L84.0063 81.1534C87.6453 84.1558 89.822 87.1675 90.6614 90.3609C91.5503 93.7418 90.9587 97.3367 88.8527 101.35L88.8403 101.373C86.8786 104.701 83.1803 107.259 78.6936 108.393C77.2275 108.781 75.7388 108.976 74.2517 108.976L74.2496 108.974ZM83.1468 46.086C83.1468 46.086 83.1478 46.0886 83.1483 46.0901C83.1483 46.0886 83.1473 46.0875 83.1468 46.086ZM83.1313 46.0479C83.1313 46.0479 83.1323 46.05 83.1329 46.0511C83.1329 46.05 83.1318 46.049 83.1313 46.0479Z" fill="#212121" stroke="#212121" stroke-width="1.46892"/>
<path d="M53.0625 111.81C52.7577 109.02 52.2147 105.426 50.7056 102.357C49.936 100.793 48.9714 99.5035 47.8388 98.525C46.5563 97.4174 45.0101 96.666 43.2423 96.2926C42.1478 96.0755 41.0318 96.0122 39.8511 95.9459C38.3916 95.8635 36.882 95.7785 35.3794 95.38C32.5813 94.6397 30.0665 92.9672 28.2987 90.6706L28.2951 90.666C25.4584 86.8928 24.4241 83.0367 25.305 79.5143C25.7984 77.6106 27.6614 75.7486 30.1467 76.0411L30.1728 76.0447C30.8436 76.1592 31.5445 76.0517 32.1501 75.7421L32.3542 75.5964C32.9919 75.0948 33.4662 74.4229 33.7269 73.6535L33.742 73.6148C33.9896 73.0429 34.2002 72.4157 34.4228 71.7508C34.9282 70.2426 35.5012 68.5339 36.7176 66.9042C38.4463 64.4391 42.0836 62.9742 45.3751 63.4174C45.7872 63.4516 46.1778 63.4923 46.5553 63.5315C47.4633 63.6255 48.2474 63.7069 48.9012 63.6576C49.6828 63.6019 50.4153 63.2651 50.9663 62.7093C52.2112 61.4183 52.4193 59.5251 52.5476 57.3646L52.5486 57.3516C52.5712 57.0887 52.5812 56.8234 52.5917 56.5419C52.6248 55.6549 52.6589 54.7373 53.0971 53.8231L53.1126 53.793C53.5248 53.0643 54.1555 52.6406 54.9361 52.5682C55.9373 52.4753 57.0724 52.9954 57.8275 53.893C59.9678 56.3902 61.337 59.2532 62.6611 62.0223C62.8632 62.445 63.0722 62.8822 63.2793 63.3084C65.0596 66.9836 67.8367 70.0547 71.3101 72.1911L70.8454 73.0791C68.5361 72.0559 66.4103 70.5849 64.5282 68.7068C62.8291 67.0112 61.3646 65.0256 60.1749 62.8043C59.8214 62.2495 59.4714 61.666 59.1325 61.1016C58.2235 59.5869 57.2915 58.0335 56.1283 56.7314C56.1253 57.0234 56.1273 57.3189 56.1294 57.6199C56.1374 58.7527 56.1454 59.9237 55.8656 61.1288C55.5438 62.8988 54.3199 65.3648 51.9209 66.5202C50.1591 67.4861 48.2183 67.3489 46.3412 67.2162C44.8477 67.1107 43.4368 67.0107 42.2401 67.4776C39.9368 68.5189 39.27 70.6065 38.5636 72.8167C38.1179 74.2108 37.6576 75.6522 36.7657 76.8789C36.1505 77.7549 35.3333 78.4951 34.4018 79.0208L34.3792 79.0329C33.767 79.3379 33.1193 79.5741 32.4545 79.7339C31.6428 79.943 30.8005 79.9018 30.1236 79.8686C29.9867 79.8621 29.8544 79.8555 29.7356 79.852C29.5621 80.0209 29.4383 80.2365 29.3811 80.4737L29.3796 80.4792C29.0652 81.724 29.1229 83.1714 29.5455 84.665C29.9351 86.042 30.6185 87.427 31.5209 88.6704C32.7468 90.3841 34.4499 91.6314 36.4473 92.2817C37.6165 92.6396 38.8724 92.7652 40.2015 92.8979C41.464 93.024 42.769 93.1542 44.037 93.4999C48.0559 94.5538 50.9267 97.0827 52.5702 101.017C54.1164 104.718 54.2347 108.916 54.0617 111.786L53.5589 111.756L53.0625 111.81V111.81Z" fill="#212121" stroke="#212121" stroke-width="1.46892"/>
<path d="M75.9706 54.0965C75.1563 54.1518 74.4499 53.5402 74.3857 52.7245V51.4309C74.5196 50.5535 75.3373 49.9509 76.2127 50.0851C76.9056 50.1911 77.4496 50.7364 77.5554 51.4309V52.7245C77.4912 53.5397 76.7848 54.1518 75.9706 54.0965Z" fill="#212121" stroke="#212121" stroke-width="1.46892"/>
<path d="M44.6688 74.8584C43.8546 74.9142 43.1472 74.3021 43.083 73.4865V72.1929C43.1467 71.3772 43.8541 70.7651 44.6688 70.8209C45.4825 70.7656 46.189 71.3777 46.2526 72.1929V73.4865C46.189 74.3016 45.4825 74.9132 44.6688 74.8584Z" fill="#212121" stroke="#212121" stroke-width="1.46892"/>
<g clip-path="url(#clip0_1610_8422)">
<path d="M137.508 63.4693H137.567V91.944H130.78V55.0518H117.324V48.21H137.508V63.4706V63.4693ZM143.598 48.21H151.022V55.0518H143.598V48.21Z" fill="#212121"/>
<path d="M188.835 76.2228C188.68 78.406 188.139 80.4538 187.212 82.3636C186.285 84.2733 185.075 85.9292 183.588 87.3325C182.099 88.7372 180.378 89.8472 178.425 90.6666C176.472 91.4834 174.394 91.895 172.19 91.895C169.87 91.895 167.695 91.4557 165.665 90.5785C163.635 89.7012 161.866 88.5031 160.359 86.9827C158.851 85.4622 157.662 83.6788 156.792 81.6336C155.922 79.5858 155.487 77.4144 155.487 75.114V48.3359H162.099V75.114C162.099 76.5161 162.36 77.8326 162.882 79.061C163.404 80.2894 164.13 81.3614 165.057 82.2768C165.985 83.1922 167.059 83.9129 168.276 84.4403C169.494 84.9651 170.799 85.2294 172.191 85.2294C173.467 85.2294 174.686 84.9953 175.844 84.5284C177.004 84.0602 178.028 83.4263 178.918 82.6266C179.808 81.827 180.532 80.8839 181.093 79.7923C181.653 78.7006 182.012 77.5104 182.167 76.2241H188.837L188.835 76.2228ZM182.223 69.0324V48.3938H188.835V69.0324H182.223Z" fill="#212121"/>
<path d="M209.717 63.4693H217.662L213.139 71.0121V91.8861H206.353V71.0121L192.838 48.21H200.726L209.715 63.3535V63.4693H209.717ZM221.839 56.5117H213.893L218.881 48.21H226.826L221.839 56.5117Z" fill="#212121"/>
<path d="M246.084 63.4693H254.029L249.506 71.0121V91.8861H242.72V71.0121L229.206 48.21H237.094L246.084 63.3535V63.4693ZM258.205 56.5117H250.26L255.248 48.21H263.193L258.205 56.5117Z" fill="#212121"/>
<path d="M282.856 47.75C285.91 47.75 288.782 48.3353 291.469 49.5032C294.156 50.6738 296.505 52.2718 298.516 54.2972C300.527 56.3253 302.112 58.7032 303.272 61.431C304.431 64.1601 305.012 67.0641 305.012 70.1418C305.012 72.9893 304.519 75.6671 303.534 78.1818C302.547 80.6965 301.204 82.9377 299.502 84.9052C297.8 86.8741 295.78 88.5116 293.441 89.8176C291.1 91.1236 288.578 91.9509 285.872 92.3021V85.6365C287.65 85.2853 289.313 84.6422 290.86 83.7071C292.406 82.7719 293.741 81.6119 294.862 80.227C295.982 78.8447 296.871 77.2953 297.53 75.5789C298.186 73.8639 298.516 72.0528 298.516 70.1418C298.516 67.9598 298.11 65.912 297.299 64.0036C296.486 62.0939 295.365 60.417 293.935 58.9755C292.504 57.5353 290.842 56.4029 288.947 55.5835C287.053 54.7668 285.023 54.3577 282.857 54.3577C280.691 54.3577 278.661 54.7668 276.767 55.5835C274.872 56.4029 273.209 57.5353 271.779 58.9755C270.348 60.4183 269.227 62.0952 268.415 64.0036C267.604 65.912 267.198 67.9598 267.198 70.1418C267.198 72.0134 267.516 73.806 268.154 75.5211C268.792 77.2375 269.663 78.7763 270.764 80.1415C271.866 81.5054 273.171 82.6562 274.679 83.5913C276.187 84.5265 277.83 85.1906 279.608 85.5786V92.2442C276.94 91.8549 274.447 91.0066 272.126 89.6993C269.806 88.3946 267.805 86.7676 266.123 84.8171C264.441 82.8693 263.116 80.6386 262.15 78.1239C261.184 75.6092 260.699 72.9485 260.699 70.1418C260.699 67.0641 261.28 64.1601 262.44 61.431C263.6 58.7019 265.185 56.324 267.197 54.2972C269.206 52.2718 271.556 50.6724 274.243 49.5032C276.93 48.3353 279.801 47.75 282.856 47.75Z" fill="#212121"/>
</g>
<defs>
<clipPath id="clip0_1610_8422">
<rect width="187.685" height="44.5521" fill="white" transform="translate(117.314 47.7236)"/>
</clipPath>
</defs>
</svg>
