<svg width="13" height="13" viewBox="0 0 13 13" fill="none" xmlns="http://www.w3.org/2000/svg">
<path d="M6.5 0C2.91567 0 0 2.91567 0 6.5C0 10.0843 2.91567 13 6.5 13C10.0843 13 13 10.0843 13 6.5C13 5.2113 12.6214 4.01003 11.9722 2.99885L11.5853 3.45588C12.1208 4.34723 12.4348 5.38652 12.4348 6.5C12.4348 9.77233 9.77233 12.4348 6.5 12.4348C3.22767 12.4348 0.565217 9.77233 0.565217 6.5C0.565217 3.22767 3.22767 0.565217 6.5 0.565217C8.03824 0.565217 9.43741 1.15863 10.493 2.12233L10.8628 1.68572C9.70831 0.638651 8.17728 0 6.5 0ZM11.6537 1.6261L6.1931 8.0698L3.8947 5.92595L3.50943 6.33938L6.24113 8.88727L12.0854 1.99151L11.6537 1.6261Z" fill="black"/>
</svg>